<?xml version="1.0" encoding="UTF-8"?>
<svg xmlns="http://www.w3.org/2000/svg" width="300" height="300" viewBox="0 0 300 300">
  <style>
    .wire {
      stroke: silver;
      stroke-width: 2;
    }
    .ring {
      fill: none;
      stroke: gold;
      stroke-width: 2;
    }
  </style>
  <rect width="300" height="300" fill="none"></rect>
  <rect x="100" y="100" width="100" height="100" fill="black"></rect>
  <rect x="105" y="105" width="90" height="90" fill="gold"></rect>
  <circle cx="150" cy="150" r="35" fill="none" stroke="maroon" stroke-width="2"></circle>
  <line x1="135" y1="125" x2="135" y2="175" stroke="maroon" stroke-width="2"></line>
  <line x1="165" y1="125" x2="165" y2="175" stroke="maroon" stroke-width="2"></line>
  <line x1="135" y1="150" x2="165" y2="150" stroke="maroon" stroke-width="2"></line>
  <text x="150" y="140" dominant-baseline="middle" text-anchor="middle" font-family="Arial" font-size="20" fill="maroon">F</text>
  <text x="150" y="165" dominant-baseline="middle" text-anchor="middle" font-family="Arial" font-size="20" fill="maroon">A</text>
  <line x1="105" y1="100" x2="105" y2="60" class="wire"></line>
  <circle cx="105" cy="60" r="5" class="ring"></circle>
  <line x1="115" y1="100" x2="115" y2="70" class="wire"></line>
  <circle cx="115" cy="70" r="5" class="ring"></circle>
  <line x1="125" y1="100" x2="125" y2="50" class="wire"></line>
  <circle cx="125" cy="50" r="5" class="ring"></circle>
  <line x1="135" y1="100" x2="135" y2="80" class="wire"></line>
  <circle cx="135" cy="80" r="5" class="ring"></circle>
  <line x1="145" y1="100" x2="145" y2="60" class="wire"></line>
  <circle cx="145" cy="60" r="5" class="ring"></circle>
  <line x1="155" y1="100" x2="155" y2="70" class="wire"></line>
  <circle cx="155" cy="70" r="5" class="ring"></circle>
  <line x1="165" y1="100" x2="165" y2="50" class="wire"></line>
  <circle cx="165" cy="50" r="5" class="ring"></circle>
  <line x1="175" y1="100" x2="175" y2="80" class="wire"></line>
  <circle cx="175" cy="80" r="5" class="ring"></circle>
  <line x1="185" y1="100" x2="185" y2="60" class="wire"></line>
  <circle cx="185" cy="60" r="5" class="ring"></circle>
  <line x1="195" y1="100" x2="195" y2="70" class="wire"></line>
  <circle cx="195" cy="70" r="5" class="ring"></circle>
  <line x1="105" y1="200" x2="105" y2="240" class="wire"></line>
  <circle cx="105" cy="240" r="5" class="ring"></circle>
  <line x1="115" y1="200" x2="115" y2="230" class="wire"></line>
  <circle cx="115" cy="230" r="5" class="ring"></circle>
  <line x1="125" y1="200" x2="125" y2="250" class="wire"></line>
  <circle cx="125" cy="250" r="5" class="ring"></circle>
  <line x1="135" y1="200" x2="135" y2="220" class="wire"></line>
  <circle cx="135" cy="220" r="5" class="ring"></circle>
  <line x1="145" y1="200" x2="145" y2="240" class="wire"></line>
  <circle cx="145" cy="240" r="5" class="ring"></circle>
  <line x1="155" y1="200" x2="155" y2="230" class="wire"></line>
  <circle cx="155" cy="230" r="5" class="ring"></circle>
  <line x1="165" y1="200" x2="165" y2="250" class="wire"></line>
  <circle cx="165" cy="250" r="5" class="ring"></circle>
  <line x1="175" y1="200" x2="175" y2="220" class="wire"></line>
  <circle cx="175" cy="220" r="5" class="ring"></circle>
  <line x1="185" y1="200" x2="185" y2="240" class="wire"></line>
  <circle cx="185" cy="240" r="5" class="ring"></circle>
  <line x1="195" y1="200" x2="195" y2="230" class="wire"></line>
  <circle cx="195" cy="230" r="5" class="ring"></circle>
  <line x1="100" y1="105" x2="60" y2="105" class="wire"></line>
  <circle cx="60" cy="105" r="5" class="ring"></circle>
  <line x1="100" y1="115" x2="70" y2="115" class="wire"></line>
  <circle cx="70" cy="115" r="5" class="ring"></circle>
  <line x1="100" y1="125" x2="50" y2="125" class="wire"></line>
  <circle cx="50" cy="125" r="5" class="ring"></circle>
  <line x1="100" y1="135" x2="80" y2="135" class="wire"></line>
  <circle cx="80" cy="135" r="5" class="ring"></circle>
  <line x1="100" y1="145" x2="60" y2="145" class="wire"></line>
  <circle cx="60" cy="145" r="5" class="ring"></circle>
  <line x1="100" y1="155" x2="70" y2="155" class="wire"></line>
  <circle cx="70" cy="155" r="5" class="ring"></circle>
  <line x1="100" y1="165" x2="50" y2="165" class="wire"></line>
  <circle cx="50" cy="165" r="5" class="ring"></circle>
  <line x1="100" y1="175" x2="80" y2="175" class="wire"></line>
  <circle cx="80" cy="175" r="5" class="ring"></circle>
  <line x1="100" y1="185" x2="60" y2="185" class="wire"></line>
  <circle cx="60" cy="185" r="5" class="ring"></circle>
  <line x1="100" y1="195" x2="70" y2="195" class="wire"></line>
  <circle cx="70" cy="195" r="5" class="ring"></circle>
  <line x1="200" y1="105" x2="240" y2="105" class="wire"></line>
  <circle cx="240" cy="105" r="5" class="ring"></circle>
  <line x1="200" y1="115" x2="230" y2="115" class="wire"></line>
  <circle cx="230" cy="115" r="5" class="ring"></circle>
  <line x1="200" y1="125" x2="250" y2="125" class="wire"></line>
  <circle cx="250" cy="125" r="5" class="ring"></circle>
  <line x1="200" y1="135" x2="220" y2="135" class="wire"></line>
  <circle cx="220" cy="135" r="5" class="ring"></circle>
  <line x1="200" y1="145" x2="240" y2="145" class="wire"></line>
  <circle cx="240" cy="145" r="5" class="ring"></circle>
  <line x1="200" y1="155" x2="230" y2="155" class="wire"></line>
  <circle cx="230" cy="155" r="5" class="ring"></circle>
  <line x1="200" y1="165" x2="250" y2="165" class="wire"></line>
  <circle cx="250" cy="165" r="5" class="ring"></circle>
  <line x1="200" y1="175" x2="220" y2="175" class="wire"></line>
  <circle cx="220" cy="175" r="5" class="ring"></circle>
  <line x1="200" y1="185" x2="240" y2="185" class="wire"></line>
  <circle cx="240" cy="185" r="5" class="ring"></circle>
  <line x1="200" y1="195" x2="230" y2="195" class="wire"></line>
  <circle cx="230" cy="195" r="5" class="ring"></circle>
</svg>
